name GIL06_slow2.mot
datacolumns 153
datarows 4
range 0.23333348 0.25833347
endheader

                time	           pelvis_tx	           pelvis_ty	           pelvis_tz	         pelvis_tilt	         pelvis_list	     pelvis_rotation	       hip_flexion_r	     hip_adduction_r	      hip_rotation_r	        knee_angle_r	       ankle_angle_r	    subtalar_angle_r	         mtp_angle_r	       hip_flexion_l	     hip_adduction_l	      hip_rotation_l	        knee_angle_l	       ankle_angle_l	    subtalar_angle_l	         mtp_angle_l	    lumbar_extension	      lumbar_bending	     lumbar_rotation	     ground_force_vx	     ground_force_vy	     ground_force_vz	     ground_force_px	     ground_force_py	     ground_force_pz	     ground_force_vx	     ground_force_vy	     ground_force_vz	     ground_force_px	     ground_force_py	     ground_force_pz	     ground_torque_x	     ground_torque_y	     ground_torque_z	     ground_torque_x	     ground_torque_y	     ground_torque_z	    ground_marker_px	    ground_marker_py	    ground_marker_pz	    ground_marker_px	    ground_marker_py	    ground_marker_pz	    ground_marker_px	    ground_marker_py	    ground_marker_pz	    ground_marker_px	    ground_marker_py	    ground_marker_pz	    ground_marker_px	    ground_marker_py	    ground_marker_pz	    ground_marker_px	    ground_marker_py	    ground_marker_pz	    ground_marker_px	    ground_marker_py	    ground_marker_pz	    ground_marker_px	    ground_marker_py	    ground_marker_pz	    ground_marker_px	    ground_marker_py	    ground_marker_pz	    ground_marker_px	    ground_marker_py	    ground_marker_pz	    ground_marker_px	    ground_marker_py	    ground_marker_pz	    ground_marker_px	    ground_marker_py	    ground_marker_pz	    ground_marker_px	    ground_marker_py	    ground_marker_pz	    ground_marker_px	    ground_marker_py	    ground_marker_pz	    ground_marker_px	    ground_marker_py	    ground_marker_pz	    ground_marker_px	    ground_marker_py	    ground_marker_pz	    ground_marker_px	    ground_marker_py	    ground_marker_pz	    ground_marker_px	    ground_marker_py	    ground_marker_pz	    ground_marker_px	    ground_marker_py	    ground_marker_pz	    ground_marker_px	    ground_marker_py	    ground_marker_pz	    ground_marker_px	    ground_marker_py	    ground_marker_pz	    ground_marker_px	    ground_marker_py	    ground_marker_pz	    ground_marker_px	    ground_marker_py	    ground_marker_pz	    ground_marker_px	    ground_marker_py	    ground_marker_pz	    ground_marker_px	    ground_marker_py	    ground_marker_pz	    ground_marker_px	    ground_marker_py	    ground_marker_pz	    ground_marker_px	    ground_marker_py	    ground_marker_pz	    ground_marker_px	    ground_marker_py	    ground_marker_pz	    ground_marker_px	    ground_marker_py	    ground_marker_pz	    ground_marker_px	    ground_marker_py	    ground_marker_pz	    ground_marker_px	    ground_marker_py	    ground_marker_pz	    ground_marker_px	    ground_marker_py	    ground_marker_pz	    ground_marker_px	    ground_marker_py	    ground_marker_pz	    ground_marker_px	    ground_marker_py	    ground_marker_pz	    ground_marker_px	    ground_marker_py	    ground_marker_pz	    ground_marker_px	    ground_marker_py	    ground_marker_pz	    ground_marker_px	    ground_marker_py	    ground_marker_pz	
          0.23333348	          1.47534895	          0.85067689	         -0.26092082	         -4.82286644	          3.23156023	         -3.47574639	          1.95704174	         -6.83689404	         -0.67834944	        -46.31242752	        -20.85637474	          0.00000000	          0.00000000	         14.34413528	          5.57655668	          0.92114121	         -5.77572489	         -3.79649091	          0.00000000	          0.00000000	         -7.35346556	         -2.03338218	          3.71421885	          0.00000000	          0.00000000	          0.00000000	          1.82751440	          0.00000000	         -0.22806212	        -57.70143878	        750.84958555	         13.13298147	          1.45482776	          0.00000000	         -0.29556927	          0.00000000	          0.00000000	          0.00000000	          0.00000000	          2.15264087	          0.00000000	          1.36679173	          0.77627885	         -0.27329642	          1.34131098	          0.77758855	         -0.19549736	          1.35287678	          0.78324008	         -0.35059321	          1.31875956	          0.39528888	         -0.16522069	          1.40953207	          0.42691785	         -0.32407594	          1.05050135	          0.16231085	         -0.19156928	          1.43083227	          0.05803023	         -0.30257887	          1.47534895	          0.85067689	         -0.26092082	          1.46621895	          0.84621567	         -0.13848890	          1.48447883	          0.85513812	         -0.38335273	          1.23184597	          0.92464942	         -0.23721011	          1.23117018	          0.92456865	         -0.29161847	          1.31306839	          0.40124935	         -0.09419723	          1.41709399	          0.42283776	         -0.39505777	          1.34736502	          0.38924560	         -0.23410331	          1.39036989	          0.41666338	         -0.24182418	          1.04023826	          0.17002308	         -0.15527271	          1.41628575	          0.05505721	         -0.33918232	          1.06450212	          0.16545609	         -0.22645184	          1.42845201	          0.07434505	         -0.26259434	          1.27392220	          1.34882450	         -0.27267784	          1.39981055	          1.27999187	         -0.23375629	          1.40011311	          1.28123033	         -0.31636989	          1.38287306	          1.27575827	         -0.28720778	          1.43370986	          1.20112479	         -0.28709942	          1.48569465	          0.55716789	         -0.07902293	          1.55955732	          0.62364107	         -0.32348827	          1.45178819	          0.57688099	         -0.10705971	          1.51269984	          0.63262057	         -0.33872625	          1.42990243	          0.50271869	         -0.11133952	          1.50383830	          0.55984843	         -0.33205834	          1.21050680	          0.19159834	         -0.14510272	          1.40894496	          0.15808824	         -0.41091576	          1.18551695	          0.23072295	         -0.15912536	          1.40999424	          0.17246096	         -0.36472604	          1.07856214	          0.06062074	         -0.19553974	          1.53163624	          0.04859327	         -0.31607449	
          0.24166681	          1.48225558	          0.85055643	         -0.26204574	         -4.81898880	          3.16501999	         -3.54999137	          3.21671104	         -7.08590603	         -0.64702362	        -48.65546036	        -20.89031410	          0.00000000	          0.00000000	         13.66697311	          5.63842964	          0.64797872	         -5.46110916	         -3.42874646	          0.00000000	          0.00000000	         -7.42321587	         -2.00276589	          3.37656689	          0.00000000	          0.00000000	          0.00000000	          1.83033105	          0.00000000	         -0.22862582	        -54.61595745	        764.89934086	         13.74899473	          1.45600549	          0.00000000	         -0.29542169	          0.00000000	          0.00000000	          0.00000000	          0.00000000	          2.14582080	          0.00000000	          1.37364185	          0.77620590	         -0.27442658	          1.34815836	          0.77756596	         -0.19663472	          1.35986400	          0.78298688	         -0.35172826	          1.33378410	          0.39430878	         -0.16346405	          1.41211677	          0.42709991	         -0.32466048	          1.06175375	          0.16658546	         -0.19136959	          1.43106294	          0.05798997	         -0.30255777	          1.48225558	          0.85055643	         -0.26204574	          1.47301257	          0.84627599	         -0.13958187	          1.49149859	          0.85483688	         -0.38450959	          1.23855555	          0.92439085	         -0.23846354	          1.23806632	          0.92462063	         -0.29289317	          1.32789218	          0.40067235	         -0.09249194	          1.41933978	          0.42276019	         -0.39566219	          1.36241090	          0.38701472	         -0.23003145	          1.39308822	          0.41744813	         -0.24244995	          1.05149996	          0.17438863	         -0.15508987	          1.41641974	          0.05504865	         -0.33912519	          1.07531822	          0.16914812	         -0.22612526	          1.42717421	          0.07456040	         -0.26238829	          1.28079784	          1.34921420	         -0.27322760	          1.40625799	          1.28036475	         -0.23409747	          1.40711784	          1.28142893	         -0.31665158	          1.38971889	          1.27601683	         -0.28764766	          1.44041705	          1.20134401	         -0.28701726	          1.49758434	          0.56006730	         -0.07798867	          1.56454980	          0.62183607	         -0.32514182	          1.46331429	          0.57858747	         -0.10586142	          1.51805329	          0.63184065	         -0.34009939	          1.44296861	          0.50370318	         -0.10910730	          1.50810623	          0.55869150	         -0.33330816	          1.22226334	          0.19272077	         -0.14415699	          1.40958035	          0.15801197	         -0.41113529	          1.19657826	          0.23235016	         -0.15855744	          1.40984023	          0.17231946	         -0.36502936	          1.08779681	          0.06405351	         -0.19445060	          1.53166604	          0.04853818	         -0.31607097	
          0.25000015	          1.48903799	          0.85025257	         -0.26305771	         -4.85872650	          3.11651850	         -3.61541605	          4.57932472	         -7.30146170	         -0.56789935	        -50.96860504	        -20.49671555	          0.00000000	          0.00000000	         13.02947235	          5.70726681	          0.42088404	         -5.11977530	         -3.07963419	          0.00000000	          0.00000000	         -7.44565773	         -2.26684713	          3.56674552	          0.00000000	          0.00000000	          0.00000000	          1.83302710	          0.00000000	         -0.22922073	        -50.82893377	        779.35169122	         14.81992832	          1.45746448	          0.00000000	         -0.29534146	          0.00000000	          0.00000000	          0.00000000	          0.00000000	          2.13084790	          0.00000000	          1.38029337	          0.77602679	         -0.27545995	          1.35483015	          0.77743810	         -0.19767706	          1.36667132	          0.78267330	         -0.35276672	          1.34907639	          0.39348444	         -0.16189294	          1.41451824	          0.42723525	         -0.32521653	          1.07361925	          0.17060500	         -0.19130997	          1.43124986	          0.05794748	         -0.30254284	          1.48903799	          0.85025257	         -0.26305771	          1.47968340	          0.84611672	         -0.14053418	          1.49839258	          0.85438842	         -0.38558125	          1.24518371	          0.92413694	         -0.23967192	          1.24487841	          0.92469144	         -0.29412988	          1.34302223	          0.40018553	         -0.09096556	          1.42145407	          0.42266446	         -0.39623237	          1.37809181	          0.38701183	         -0.22901624	          1.39455187	          0.41764426	         -0.24407531	          1.06341708	          0.17842405	         -0.15501909	          1.41653919	          0.05503730	         -0.33908561	          1.08767104	          0.17253445	         -0.22591008	          1.42650259	          0.07472423	         -0.26229501	          1.28806937	          1.34939611	         -0.27391499	          1.41304827	          1.28091633	         -0.23452890	          1.41363025	          1.28157306	         -0.31701559	          1.39646351	          1.27622235	         -0.28795332	          1.44695532	          1.20160377	         -0.28713661	          1.50951457	          0.56306219	         -0.07718002	          1.56938529	          0.61996019	         -0.32658157	          1.47546101	          0.58066750	         -0.10450039	          1.52293992	          0.63060874	         -0.34090838	          1.45628762	          0.50458622	         -0.10789611	          1.51149988	          0.55720651	         -0.33469629	          1.23460209	          0.19387592	         -0.14359173	          1.41021085	          0.15794747	         -0.41135687	          1.21028459	          0.23330607	         -0.15805966	          1.41007042	          0.17226231	         -0.36529839	          1.09844923	          0.06748927	         -0.19330268	          1.53169751	          0.04848445	         -0.31606671	
          0.25833347	          1.49569845	          0.84979504	         -0.26394331	         -4.93939018	          3.08779597	         -3.67090893	          6.02986526	         -7.48251629	         -0.41968200	        -53.20996857	        -19.72163010	          0.00000000	          0.00000000	         12.42806625	          5.78234243	          0.23936994	         -4.74893522	         -2.75105095	          0.00000000	          0.00000000	         -7.45842409	         -2.35894895	          3.93308759	          0.00000000	          0.00000000	          0.00000000	          1.83557361	          0.00000000	         -0.22984232	        -46.71845901	        791.73390583	         16.20960131	          1.45907520	          0.00000000	         -0.29532626	          0.00000000	          0.00000000	          0.00000000	          0.00000000	          2.08897607	          0.00000000	          1.38676775	          0.77576262	         -0.27639216	          1.36133361	          0.77722639	         -0.19861203	          1.37330306	          0.78232616	         -0.35369635	          1.36455595	          0.39283818	         -0.16052350	          1.41674078	          0.42731398	         -0.32574710	          1.08610940	          0.17425489	         -0.19138910	          1.43141043	          0.05790198	         -0.30253530	          1.49569845	          0.84979504	         -0.26394331	          1.48623586	          0.84576339	         -0.14133948	          1.50516105	          0.85382670	         -0.38654712	          1.25173521	          0.92391765	         -0.24082249	          1.25159407	          0.92479056	         -0.29531533	          1.35840940	          0.39981133	         -0.08963031	          1.42343998	          0.42254201	         -0.39677244	          1.39411294	          0.38717327	         -0.22781339	          1.39648592	          0.41852969	         -0.24338910	          1.07598913	          0.18201734	         -0.15506315	          1.41664279	          0.05502070	         -0.33905748	          1.10032940	          0.17629342	         -0.22598259	          1.42767191	          0.07468159	         -0.26241943	          1.29520297	          1.34963787	         -0.27486837	          1.41978776	          1.28123546	         -0.23497929	          1.41989064	          1.28180921	         -0.31716001	          1.40318656	          1.27638733	         -0.28816140	          1.45324600	          1.20181012	         -0.28755158	          1.52147901	          0.56615144	         -0.07666422	          1.57407188	          0.61802655	         -0.32780889	          1.48789740	          0.58311808	         -0.10377562	          1.52760053	          0.62897712	         -0.34147638	          1.46976566	          0.50635314	         -0.10687815	          1.51494837	          0.55626208	         -0.33526510	          1.24752247	          0.19502611	         -0.14338760	          1.41080105	          0.15789370	         -0.41156638	          1.22389793	          0.23482409	         -0.15769109	          1.41139841	          0.17216235	         -0.36544111	          1.11053634	          0.07080591	         -0.19215451	          1.53172719	          0.04843377	         -0.31606477	
